# xmcd CD database file
#
# Track frame offsets:
#	150
#	18044
#	50933
#	63069
#	80960
#	95172
#	124003
#	140910
#	165192
#	186333
#	196407
#	216510
#	236531
#	252876
#	288831
#
# Disc length: 4002 seconds
#
# Revision: 0
# Processed by: cddbd v1.4PL0 Copyright (c) Steve Scherf et al.
# Submitted via: CDex 1.51
#
DISCID=df0fa00f
DTITLE=Bob Margolin - All-Star Blues Jam
DYEAR=2003
DGENRE=Blues
TTITLE0=Brutal-Hearted Woman 
TTITLE1=Sweet (Little) Black Angel 
TTITLE2=One Day You're Gonna Get Lucky 
TTITLE3=I'll Take Care Of You 
TTITLE4=Juke
TTITLE5=Mean Old Chicago
TTITLE6=Always On My Mind
TTITLE7=Easy To Love You
TTITLE8=Last Time
TTITLE9=Maybe The Hippies Were Right 
TTITLE10=County Boy
TTITLE11=Crazy 'Bout You Baby 
TTITLE12=My New Baby Owns A Whiskey Store
TTITLE13=Goin' Down Slow 
TTITLE14=Just a Closer Walk with Thee
EXTD=YEAR: 2003
EXTT0=
EXTT1=
EXTT2=
EXTT3=
EXTT4=
EXTT5=
EXTT6=
EXTT7=
EXTT8=
EXTT9=
EXTT10=
EXTT11=
EXTT12=
EXTT13=
EXTT14=
PLAYORDER=
